<svg id="Group_351" data-name="Group 351" xmlns="http://www.w3.org/2000/svg" xmlns:xlink="http://www.w3.org/1999/xlink" viewBox="0 0 354 342.096">
  <defs>
    <style>
      .cls-1 {
        fill: #75bee9;
      }

      .cls-2 {
        clip-path: url(#clip-path);
      }

      .cls-3 {
        fill: #6ab1db;
      }

      .cls-4 {
        fill: #67add6;
      }
    </style>
    <clipPath id="clip-path">
      <ellipse id="Ellipse_52" data-name="Ellipse 52" cx="177" cy="171.048" rx="177" ry="171.048"/>
    </clipPath>
  </defs>
  <ellipse id="Ellipse_51" data-name="Ellipse 51" class="cls-1" cx="177" cy="171.048" rx="177" ry="171.048" transform="translate(0 0)"/>
  <g id="Group_240" data-name="Group 240" class="cls-2" transform="translate(0 0)">
    <g id="Group_236" data-name="Group 236" transform="translate(-36.912 211.017)">
      <g id="Group_235" data-name="Group 235">
        <path id="Path_132" data-name="Path 132" class="cls-3" d="M319.574,170.561H283.107v1.289a12.015,12.015,0,0,1-24.015,0v-1.289h-139.2v1.289a12.015,12.015,0,0,1-24.015,0v-1.289H60.3V102.228h47.141L146.132,61.4h88.945l38.691,40.828h45.807Z" transform="translate(-60.3 -61.4)"/>
      </g>
    </g>
    <g id="Group_237" data-name="Group 237" transform="translate(203.161 121.195)">
      <path id="Path_133" data-name="Path 133" class="cls-4" d="M279.353,87.345a38.078,38.078,0,0,0-21.347-3.438L239.328,40.5H216.647V53.823h13.342l5.337,12.893H185.516l-6.671-12.463h6.226V40.93h-29.8V54.253h8.005l9.339,17.191L161.946,86.485a37.725,37.725,0,0,0-16.9-2.579c-16.455,1.719-29.352,14.612-30.686,30.514-1.334,19.34,14.676,35.671,34.244,35.671a34.9,34.9,0,0,0,33.8-26.646h28.018l30.686-43.836,4,9.025c-13.342,8.166-20.9,24.927-13.342,42.117a30.943,30.943,0,0,0,16.9,16.331c28.462,11.174,55.146-12.893,47.141-39.969A32.281,32.281,0,0,0,279.353,87.345Zm-96.505,22.778a31.342,31.342,0,0,0-8.895-16.331l6.671-9.455,13.787,25.786Zm24.46-5.157L193.521,79.609h31.131Z" transform="translate(-114.283 -40.5)"/>
    </g>
    <g id="Group_239" data-name="Group 239" transform="translate(-305.081 -52.862)">
      <g id="Group_238" data-name="Group 238">
        <path id="Path_134" data-name="Path 134" class="cls-3" d="M508.764,90.251a12.224,12.224,0,0,0-12.452-12.034H320.646V58.878h-64.04L104.51,0l-2.668,6.447L237.927,59.308H171.219v19.34H32.91A12.23,12.23,0,0,0,20.457,90.681L0,196.4a12.224,12.224,0,0,0,12.452,12.034H44.028a12.9,12.9,0,0,0,25.794,0,12.9,12.9,0,0,0,25.794,0H437.164a12.9,12.9,0,0,0,25.794,0,12.9,12.9,0,0,0,25.794,0h28.018A12.23,12.23,0,0,0,529.222,196.4ZM177.89,65.755H313.53V74.78H177.89Zm-72.49,93.69H37.8l12.008-55.87H105.4Zm56.035,0h-48.92v-55.87h48.92Zm55.146,0H168.106v-55.87h48.03v55.87Zm60.038,0H223.7v-55.87h52.922Zm52.033,0H283.289v-55.87h44.917v55.87Zm56.925,0H335.767v-55.87h49.809Zm53.367,0h-46.7v-55.87h46.7Zm7.116,0v-55.87H484.3l12.9,55.87Z"/>
      </g>
    </g>
  </g>
</svg>
