<svg id="Group_241" data-name="Group 241" xmlns="http://www.w3.org/2000/svg" xmlns:xlink="http://www.w3.org/1999/xlink" viewBox="0 0 291.308 281.512">
  <defs>
    <style>
      .cls-1 {
        fill: #6a4a9e;
      }

      .cls-2 {
        clip-path: url(#clip-path);
      }

      .cls-3 {
        fill: #5d408d;
      }
    </style>
    <clipPath id="clip-path">
      <ellipse id="Ellipse_52" data-name="Ellipse 52" cx="145.654" cy="140.756" rx="145.654" ry="140.756"/>
    </clipPath>
  </defs>
  <ellipse id="Ellipse_51" data-name="Ellipse 51" class="cls-1" cx="145.654" cy="140.756" rx="145.654" ry="140.756" transform="translate(0 0)"/>
  <g id="Group_240" data-name="Group 240" class="cls-2" transform="translate(0 0)">
    <g id="Group_236" data-name="Group 236" transform="translate(-30.375 173.647)">
      <g id="Group_235" data-name="Group 235">
        <path id="Path_132" data-name="Path 132" class="cls-3" d="M273.658,151.229H243.649v1.061a9.887,9.887,0,0,1-19.762,0v-1.061H109.339v1.061a9.887,9.887,0,0,1-19.762,0v-1.061H60.3V95H99.092l31.839-33.6h73.193L235.963,95h37.694Z" transform="translate(-60.3 -61.4)"/>
      </g>
    </g>
    <g id="Group_237" data-name="Group 237" transform="translate(167.182 99.732)">
      <path id="Path_133" data-name="Path 133" class="cls-3" d="M250.12,79.049a31.335,31.335,0,0,0-17.566-2.829L217.183,40.5H198.519V51.463H209.5l4.392,10.61H172.9l-5.49-10.256h5.124V40.854h-24.52V51.817H154.6l7.685,14.146L153.5,78.342A31.044,31.044,0,0,0,139.6,76.22c-13.541,1.415-24.154,12.024-25.252,25.11-1.1,15.915,12.077,29.354,28.179,29.354a28.716,28.716,0,0,0,27.813-21.927H193.4l25.252-36.073,3.294,7.427c-10.979,6.72-17.2,20.512-10.979,34.659a25.463,25.463,0,0,0,13.907,13.439c23.422,9.2,45.38-10.61,38.792-32.89A26.564,26.564,0,0,0,250.12,79.049ZM170.705,97.793a25.792,25.792,0,0,0-7.319-13.439l5.49-7.781,11.345,21.22Zm20.128-4.244L179.488,72.683h25.618Z" transform="translate(-114.283 -40.5)"/>
    </g>
    <g id="Group_239" data-name="Group 239" transform="translate(-251.052 -43.5)">
      <g id="Group_238" data-name="Group 238">
        <path id="Path_134" data-name="Path 134" class="cls-3" d="M418.664,74.268a10.059,10.059,0,0,0-10.247-9.9H263.861V48.451h-52.7L86,0l-2.2,5.3L195.791,48.8H140.9V64.72H27.081a10.064,10.064,0,0,0-10.247,9.9L0,161.622a10.059,10.059,0,0,0,10.247,9.9H36.231a10.619,10.619,0,0,0,21.226,0,10.619,10.619,0,0,0,21.226,0H359.744a10.619,10.619,0,0,0,21.226,0,10.619,10.619,0,0,0,21.226,0h23.056a10.064,10.064,0,0,0,10.247-9.9ZM146.386,54.11H258.006v7.427H146.386Zm-59.652,77.1H31.107l9.881-45.976H86.734Zm46.112,0H92.589V85.232h40.256Zm45.38,0h-39.89V85.232h39.524v45.976Zm49.405,0h-43.55V85.232h43.55Zm42.818,0H233.12V85.232h36.963v45.976Zm46.844,0H276.3V85.232h40.988Zm43.916,0H322.781V85.232h38.426Zm5.856,0V85.232h31.473l10.613,45.976Z"/>
      </g>
    </g>
  </g>
</svg>
