<svg xmlns="http://www.w3.org/2000/svg" xmlns:xlink="http://www.w3.org/1999/xlink" viewBox="0 0 280.36 280.36">
  <defs>
    <style>
      .cls-1 {
        fill: #f9ee6e;
      }

      .cls-2 {
        clip-path: url(#clip-path);
      }

      .cls-3 {
        fill: #e8d25b;
      }

      .cls-4 {
        fill: #e0ce48;
      }
    </style>
    <clipPath id="clip-path">
      <path id="Path_153" data-name="Path 153" d="M289.36,140.68A140.18,140.18,0,1,1,149.18.5,140.1,140.1,0,0,1,289.36,140.68Z" transform="translate(-9 -0.5)"/>
    </clipPath>
  </defs>
  <g id="Group_354" data-name="Group 354" transform="translate(-9 -0.5)">
    <path id="Path_150" data-name="Path 150" class="cls-1" d="M289.36,140.68A140.18,140.18,0,1,1,149.18.5,140.1,140.1,0,0,1,289.36,140.68Z" transform="translate(0 0)"/>
    <g id="Group_334" data-name="Group 334" class="cls-2" transform="translate(9 0.5)">
      <path id="Path_151" data-name="Path 151" class="cls-3" d="M40.5,31.2V77.039H86.339Z" transform="translate(52.657 59.592)"/>
      <path id="Path_152" data-name="Path 152" class="cls-3" d="M114.155,74.361H16.266V68.742h97.889V30H0V252.1H169.162V85.007H114.155ZM152.9,226.074H16.266v-5.619H153.192v5.619Zm0-21.589H16.266v-5.619H153.192v5.619Zm0-21.885H16.266v-5.619H153.192V182.6Zm0-21.589H16.266v-5.619H153.192v5.619Zm0-21.589H16.266V133.8H153.192v5.619Zm0-21.589H16.266v-5.619H153.192v5.619Zm0-27.208v5.619H16.266V90.626Z" transform="translate(-26.616 57.243)"/>
    </g>
    <g id="Group_335" data-name="Group 335" class="cls-2" transform="translate(9 0.5)">
      <path id="Path_154" data-name="Path 154" class="cls-4" d="M121.556,13.012a88.813,88.813,0,0,1,21,2.662,50.319,50.319,0,0,1,19.223,9.168l-18.04,21.885a27.161,27.161,0,0,0-10.351-5.619,52.147,52.147,0,0,0-11.83-2.07v29.87L139.6,74.23a41.008,41.008,0,0,1,19.814,12.125c5.028,5.619,7.393,13.012,7.393,21.589a40.865,40.865,0,0,1-3.549,17.449A37.545,37.545,0,0,1,153.5,138.11,46.375,46.375,0,0,1,139,146.39a68.008,68.008,0,0,1-17.449,3.845v13.012H109.135V150.235a98.125,98.125,0,0,1-24.546-3.253A53.219,53.219,0,0,1,63,135.152l19.814-22.18a26.087,26.087,0,0,0,11.83,8.576,48.635,48.635,0,0,0,14.491,2.957V92.566l-13.6-4.14c-9.464-2.957-16.561-7.1-21.589-12.717-5.028-5.323-7.393-13.012-7.393-22.476A35.216,35.216,0,0,1,70.1,37.263a38.38,38.38,0,0,1,9.464-12.125,52.3,52.3,0,0,1,13.6-8.281,60.541,60.541,0,0,1,15.97-4.14V0h12.421V13.012ZM109.135,39.333a33.483,33.483,0,0,0-9.464,3.845c-2.662,1.774-4.14,4.732-4.14,8.872a11.6,11.6,0,0,0,1.774,6.8A15.812,15.812,0,0,0,101.15,62.7a29.848,29.848,0,0,0,4.436,2.07,15.694,15.694,0,0,1,3.253.887V39.333Zm12.421,84.581a39.4,39.4,0,0,0,5.619-1.479,13.629,13.629,0,0,0,5.028-2.662,12.041,12.041,0,0,0,3.549-4.14,10.52,10.52,0,0,0,1.479-5.619,12.745,12.745,0,0,0-.887-5.028,8.074,8.074,0,0,0-2.662-3.549,16.768,16.768,0,0,0-3.845-2.366c-1.479-.591-2.957-1.479-4.732-2.07l-3.549-1.183Z" transform="translate(96.699 -1.479)"/>
    </g>
  </g>
</svg>
