<svg xmlns="http://www.w3.org/2000/svg" xmlns:xlink="http://www.w3.org/1999/xlink" viewBox="0 0 238.474 238.473">
  <defs>
    <style>
      .cls-1 {
        fill: #eda571;
      }

      .cls-2 {
        clip-path: url(#clip-path);
      }

      .cls-3 {
        fill: #ed9351;
      }

      .cls-4 {
        fill: #ed9351;
      }

      .cls-5 {
        fill: #ed9251;
      }
    </style>
    <clipPath id="clip-path">
      <path id="Path_153" data-name="Path 153" d="M247.473,119.737A119.237,119.237,0,1,1,128.237.5,119.167,119.167,0,0,1,247.473,119.737Z" transform="translate(-9 -0.5)"/>
    </clipPath>
  </defs>
  <g id="Group_336" data-name="Group 336" transform="translate(-9 -0.5)">
    <path id="Path_150" data-name="Path 150" class="cls-1" d="M247.473,119.737A119.237,119.237,0,1,1,128.237.5,119.167,119.167,0,0,1,247.473,119.737Z" transform="translate(0)"/>
    <g id="Group_334" data-name="Group 334" class="cls-2" transform="translate(9 0.5)">
      <path id="Path_151" data-name="Path 151" class="cls-3" d="M40.5,31.2V70.191H79.491Z" transform="translate(38.74 46.027)"/>
      <path id="Path_152" data-name="Path 152" class="cls-4" d="M97.1,67.733H13.835v-4.78H97.1V30H0V218.917H143.889V76.789H97.1ZM130.054,196.78H13.835V192h116.47v4.78Zm0-18.363H13.835v-4.78h116.47v4.78Zm0-18.615H13.835v-4.78h116.47v4.78Zm0-18.363H13.835v-4.78h116.47v4.78Zm0-18.363H13.835V118.3h116.47v4.78Zm0-18.363H13.835v-4.78h116.47v4.78Zm0-23.143v4.78H13.835v-4.78Z" transform="translate(-22.64 44.208)"/>
    </g>
    <g id="Group_335" data-name="Group 335" class="cls-2" transform="translate(9 0.5)">
      <path id="Path_154" data-name="Path 154" class="cls-5" d="M112.808,11.068a75.545,75.545,0,0,1,17.86,2.264,42.8,42.8,0,0,1,16.351,7.8L131.674,39.746a23.1,23.1,0,0,0-8.8-4.78,44.356,44.356,0,0,0-10.062-1.761V58.612l15.345,4.528a34.881,34.881,0,0,1,16.854,10.314c4.276,4.78,6.289,11.068,6.289,18.363a34.76,34.76,0,0,1-3.019,14.842,31.936,31.936,0,0,1-8.3,10.817,39.447,39.447,0,0,1-12.326,7.044,57.847,57.847,0,0,1-14.842,3.27v11.068H102.242V127.79a83.466,83.466,0,0,1-20.879-2.767A45.268,45.268,0,0,1,63,114.96L79.854,96.094a22.189,22.189,0,0,0,10.062,7.3,41.369,41.369,0,0,0,12.326,2.516V78.736L90.671,75.215C82.621,72.7,76.584,69.177,72.308,64.4c-4.276-4.528-6.289-11.068-6.289-19.118A29.955,29.955,0,0,1,69.037,31.7a32.646,32.646,0,0,1,8.05-10.314,44.484,44.484,0,0,1,11.571-7.044,51.5,51.5,0,0,1,13.584-3.522V0h10.565V11.068ZM102.242,33.457a28.481,28.481,0,0,0-8.05,3.27c-2.264,1.509-3.522,4.025-3.522,7.547a9.863,9.863,0,0,0,1.509,5.786,13.45,13.45,0,0,0,3.27,3.27,25.388,25.388,0,0,0,3.773,1.761,13.349,13.349,0,0,1,2.767.755V33.457ZM112.808,105.4a33.511,33.511,0,0,0,4.78-1.258,11.592,11.592,0,0,0,4.276-2.264,10.242,10.242,0,0,0,3.019-3.522,8.948,8.948,0,0,0,1.258-4.78,10.841,10.841,0,0,0-.755-4.276,6.867,6.867,0,0,0-2.264-3.019,14.263,14.263,0,0,0-3.27-2.012c-1.258-.5-2.516-1.258-4.025-1.761L112.808,81.5v23.9Z" transform="translate(72.839 -1.258)"/>
    </g>
  </g>
</svg>
