<svg id="Group_353" data-name="Group 353" xmlns="http://www.w3.org/2000/svg" xmlns:xlink="http://www.w3.org/1999/xlink" viewBox="0 0 472.5 456.611">
  <defs>
    <style>
      .cls-1 {
        fill: #eda571;
      }

      .cls-2 {
        clip-path: url(#clip-path);
      }

      .cls-3 {
        fill: #ed9453;
      }
    </style>
    <clipPath id="clip-path">
      <ellipse id="Ellipse_52" data-name="Ellipse 52" cx="236.25" cy="228.306" rx="236.25" ry="228.306"/>
    </clipPath>
  </defs>
  <path id="Path_163" data-name="Path 163" class="cls-1" d="M236.25,0C366.727,0,472.5,102.216,472.5,228.306S366.727,456.611,236.25,456.611,0,354.4,0,228.306,105.773,0,236.25,0Z" transform="translate(0 0)"/>
  <g id="Group_240" data-name="Group 240" class="cls-2" transform="translate(0 0)">
    <g id="Group_236" data-name="Group 236" transform="translate(-49.268 281.653)">
      <g id="Group_235" data-name="Group 235">
        <path id="Path_132" data-name="Path 132" class="cls-3" d="M406.365,207.1H357.69v1.721a16.036,16.036,0,0,1-32.054,0V207.1H139.841v1.721a16.036,16.036,0,0,1-32.054,0V207.1H60.3V115.9h62.921l51.643-54.5H293.582l51.643,54.5h61.14Z" transform="translate(-60.3 -61.4)"/>
      </g>
    </g>
    <g id="Group_237" data-name="Group 237" transform="translate(271.168 161.764)">
      <path id="Path_133" data-name="Path 133" class="cls-3" d="M334.609,103.026a50.825,50.825,0,0,0-28.492-4.589L281.186,40.5H250.913V58.283h17.808l7.123,17.209H209.361l-8.9-16.635h8.31V41.074H169V58.856h10.685L192.147,81.8,177.9,101.879a50.353,50.353,0,0,0-22.557-3.442c-21.963,2.295-39.177,19.5-40.958,40.728-1.781,25.813,19.589,47.611,45.707,47.611a46.578,46.578,0,0,0,45.113-35.565h37.4L283.56,92.7l5.342,12.046c-17.808,10.9-27.9,33.271-17.808,56.216a41.3,41.3,0,0,0,22.557,21.8c37.99,14.914,73.605-17.209,62.921-53.348C353.011,117.94,345.294,108.189,334.609,103.026Zm-128.81,30.4a41.834,41.834,0,0,0-11.872-21.8l8.9-12.62,18.4,34.418Zm32.648-6.884L220.046,92.7H261.6Z" transform="translate(-114.283 -40.5)"/>
    </g>
    <g id="Group_239" data-name="Group 239" transform="translate(-407.205 -70.557)">
      <g id="Group_238" data-name="Group 238">
        <path id="Path_134" data-name="Path 134" class="cls-3" d="M679.071,120.463A16.316,16.316,0,0,0,662.45,104.4H427.981V78.588H342.5L139.494,0l-3.562,8.6,181.64,70.557H228.533v25.813H43.926c-8.9,0-16.621,6.884-16.621,16.062L0,262.15a16.316,16.316,0,0,0,16.621,16.062H58.766c0,9.178,7.717,16.635,17.214,16.635s17.214-7.457,17.214-16.635c0,9.178,7.717,16.635,17.214,16.635s17.214-7.457,17.214-16.635H583.5c0,9.178,7.717,16.635,17.214,16.635s17.214-7.457,17.214-16.635c0,9.178,7.717,16.635,17.214,16.635s17.214-7.457,17.214-16.635h37.4c8.9,0,16.621-6.884,16.621-16.062Zm-441.633-32.7H418.483V99.812H237.437ZM140.682,212.817H50.455l16.027-74.572h74.2Zm74.793,0h-65.3V138.245h65.3Zm73.606,0h-64.7V138.245h64.108v74.572Zm80.135,0H298.577V138.245h70.638Zm69.45,0H378.119V138.245h59.953v74.572Zm75.98,0H448.163V138.245h66.482Zm71.231,0H523.549V138.245h62.327Zm9.5,0V138.245h51.049l17.214,74.572Z"/>
      </g>
    </g>
  </g>
</svg>
