<svg id="Group_201" data-name="Group 201" xmlns="http://www.w3.org/2000/svg" xmlns:xlink="http://www.w3.org/1999/xlink" viewBox="0 0 115.722 111.016">
  <defs>
    <style>
      .cls-1 {
        fill: #f6b66f;
      }

      .cls-2 {
        fill: #eda571;
      }

      .cls-3 {
        clip-path: url(#clip-path);
      }

      .cls-4 {
        fill: #e38b4c;
      }
    </style>
    <clipPath id="clip-path">
      <path id="Path_130" data-name="Path 130" class="cls-1" d="M57.861,0c17.1,0,43.187,18.51,43.187,18.51s14.674,22.618,14.674,36.83a53.884,53.884,0,0,1-14.189,36.3,58.746,58.746,0,0,1-43.673,19.037C25.905,110.681,0,85.9,0,55.34S25.905,0,57.861,0Z" transform="translate(0 0)"/>
    </clipPath>
  </defs>
  <path id="Path_131" data-name="Path 131" class="cls-2" d="M57.861,0c31.956,0,57.861,24.777,57.861,55.34s-25.905,55.34-57.861,55.34S0,85.9,0,55.34,25.905,0,57.861,0Z" transform="translate(0 0.335)"/>
  <g id="Mask_Group_132" data-name="Mask Group 132" class="cls-3" transform="translate(0 0)">
    <path id="Path_123" data-name="Path 123" class="cls-4" d="M161.592,771.868c0-5.027-5.211-9.317-12.37-10.617l-1.676-17.292c1.45-.477,2.4-1.3,2.4-2.254,0-1.04-1.133-1.95-2.855-2.384L144.646,714.1,142.2,739.322c-1.677.433-2.855,1.343-2.855,2.384,0,.953.952,1.777,2.4,2.254L140.07,761.25c-7.114,1.3-12.37,5.547-12.37,10.617,0,4.55,4.259,8.45,10.331,10.141l-8.473,86.89H159.78l-8.473-86.89C157.333,780.362,161.592,776.461,161.592,771.868Z" transform="translate(-86.75 -706.051)"/>
  </g>
</svg>
