<svg id="Group_199" data-name="Group 199" xmlns="http://www.w3.org/2000/svg" xmlns:xlink="http://www.w3.org/1999/xlink" viewBox="0 0 117.474 112.356">
  <defs>
    <style>
      .cls-1 {
        fill: #eda571;
      }

      .cls-2 {
        clip-path: url(#clip-path);
      }

      .cls-3 {
        fill: #e38b4c;
      }
    </style>
    <clipPath id="clip-path">
      <path id="Path_117" data-name="Path 117" d="M126.474,56.678c0,31.052-26.27,56.178-58.737,56.178S9,87.73,9,56.678,35.27.5,67.737.5,126.474,25.626,126.474,56.678Z" transform="translate(-9 -0.5)"/>
    </clipPath>
  </defs>
  <path id="Path_114" data-name="Path 114" class="cls-1" d="M126.474,56.678c0,31.052-26.27,56.178-58.737,56.178S9,87.73,9,56.678,35.27.5,67.737.5,126.474,25.626,126.474,56.678Z" transform="translate(-9 -0.5)"/>
  <g id="Group_140" data-name="Group 140" class="cls-2" transform="translate(0 0)">
    <path id="Path_115" data-name="Path 115" class="cls-3" d="M40.5,31.2V49.57H59.707Z" transform="translate(-1.466 5.185)"/>
    <path id="Path_116" data-name="Path 116" class="cls-3" d="M47.832,47.778H6.815V45.526H47.832V30H0v89.008H70.881V52.044H47.832Zm16.233,60.8H6.815v-2.252H64.189v2.252Zm0-8.652H6.815V97.674H64.189v2.252Zm0-8.77H6.815V88.9H64.189v2.252Zm0-8.652H6.815V80.252H64.189V82.5Zm0-8.652H6.815V71.6H64.189v2.252Zm0-8.652H6.815V62.948H64.189V65.2Zm0-10.9v2.252H6.815V54.3Z" transform="translate(-11.153 4.963)"/>
  </g>
  <g id="Group_141" data-name="Group 141" class="cls-2" transform="translate(0 0)">
    <path id="Path_118" data-name="Path 118" class="cls-3" d="M87.536,5.215a38.82,38.82,0,0,1,8.8,1.067,21.509,21.509,0,0,1,8.055,3.674l-7.559,8.77a11.547,11.547,0,0,0-4.337-2.252,22.752,22.752,0,0,0-4.957-.83v11.97l7.559,2.133a17.322,17.322,0,0,1,8.3,4.859,12.249,12.249,0,0,1,3.1,8.652,15.769,15.769,0,0,1-1.487,6.993,15.147,15.147,0,0,1-4.089,5.1,19.67,19.67,0,0,1-6.072,3.319,29.607,29.607,0,0,1-7.311,1.541v5.215h-5.2V60.207a42.88,42.88,0,0,1-10.285-1.3A22.613,22.613,0,0,1,63,54.163l8.3-8.889a10.923,10.923,0,0,0,4.957,3.437A21.188,21.188,0,0,0,82.331,49.9V37.1l-5.7-1.659a19.739,19.739,0,0,1-9.046-5.1c-2.107-2.133-3.1-5.215-3.1-9.007a13.6,13.6,0,0,1,1.487-6.4,15.5,15.5,0,0,1,3.965-4.859,22.116,22.116,0,0,1,5.7-3.319A26.3,26.3,0,0,1,82.331,5.1V0h5.2V5.215Zm-5.2,10.548A14.4,14.4,0,0,0,78.366,17.3a3.93,3.93,0,0,0-1.735,3.556,4.5,4.5,0,0,0,.744,2.726,6.49,6.49,0,0,0,1.611,1.541,12.778,12.778,0,0,0,1.859.83,6.81,6.81,0,0,1,1.363.356V15.763Zm5.2,33.9a17.115,17.115,0,0,0,2.354-.593A5.8,5.8,0,0,0,92,48a4.892,4.892,0,0,0,1.487-1.659,4.077,4.077,0,0,0,.62-2.252,4.911,4.911,0,0,0-.372-2.015,3.254,3.254,0,0,0-1.115-1.422,7.087,7.087,0,0,0-1.611-.948c-.62-.237-1.239-.593-1.983-.83L87.536,38.4V49.659Z" transform="translate(3.915 -0.593)"/>
  </g>
</svg>
