<svg id="Group_429" data-name="Group 429" xmlns="http://www.w3.org/2000/svg" xmlns:xlink="http://www.w3.org/1999/xlink" viewBox="0 0 117.76 113.8">
  <defs>
    <style>
      .cls-1 {
        fill: #eda571;
      }

      .cls-2 {
        clip-path: url(#clip-path);
      }

      .cls-3 {
        fill: #e38b4c;
      }

      .cls-4 {
        fill: #ed9453;
      }
    </style>
    <clipPath id="clip-path">
      <ellipse id="Ellipse_52" data-name="Ellipse 52" cx="58.88" cy="56.9" rx="58.88" ry="56.9"/>
    </clipPath>
  </defs>
  <path id="Path_163" data-name="Path 163" class="cls-1" d="M58.88,0C91.4,0,117.76,25.475,117.76,56.9S91.4,113.8,58.88,113.8,0,88.325,0,56.9,26.361,0,58.88,0Z" transform="translate(0 0)"/>
  <g id="Group_240" data-name="Group 240" class="cls-2" transform="translate(0 0)">
    <g id="Group_236" data-name="Group 236" transform="translate(-12.279 70.196)">
      <g id="Group_235" data-name="Group 235">
        <path id="Path_132" data-name="Path 132" class="cls-3" d="M146.549,97.713H134.418v.429a4,4,0,0,1-7.989,0v-.429H80.124v.429a4,4,0,0,1-7.989,0v-.429H60.3V74.982H75.982L88.852,61.4H118.44l12.871,13.582h15.238Z" transform="translate(-60.3 -61.4)"/>
      </g>
    </g>
    <g id="Group_237" data-name="Group 237" transform="translate(67.583 40.316)">
      <path id="Path_133" data-name="Path 133" class="cls-3" d="M169.194,56.083a12.667,12.667,0,0,0-7.1-1.144L155.879,40.5h-7.545v4.432h4.438l1.775,4.289H137.979l-2.219-4.146h2.071V40.643h-9.912v4.432h2.663l3.107,5.719-3.551,5a12.549,12.549,0,0,0-5.622-.858A11.026,11.026,0,0,0,125.7,76.956a11.608,11.608,0,0,0,11.243-8.864h9.32L156.471,53.51l1.331,3a10.957,10.957,0,0,0-4.438,14.011,10.293,10.293,0,0,0,5.622,5.433c9.468,3.717,18.344-4.289,15.682-13.3A10.738,10.738,0,0,0,169.194,56.083Zm-32.1,7.577a10.426,10.426,0,0,0-2.959-5.433l2.219-3.145,4.586,8.578Zm8.137-1.716-4.586-8.435H151Z" transform="translate(-114.283 -40.5)"/>
    </g>
    <g id="Group_239" data-name="Group 239" transform="translate(-101.487 -17.585)">
      <g id="Group_238" data-name="Group 238">
        <path id="Path_134" data-name="Path 134" class="cls-4" d="M169.243,30.023a4.066,4.066,0,0,0-4.142-4H106.665V19.586h-21.3L34.766,0l-.888,2.144,45.27,17.585H56.957v6.433H10.948a4.068,4.068,0,0,0-4.142,4L0,65.335a4.066,4.066,0,0,0,4.142,4h10.5a4.293,4.293,0,0,0,8.581,0,4.293,4.293,0,0,0,8.58,0H145.425a4.293,4.293,0,0,0,8.581,0,4.293,4.293,0,0,0,8.581,0h9.32a4.068,4.068,0,0,0,4.142-4ZM59.176,21.874H104.3v3H59.176ZM35.062,53.04H12.575l3.994-18.585H35.062Zm18.64,0H37.429V34.455H53.7Zm18.345,0H55.921V34.455H71.9V53.04Zm19.972,0h-17.6V34.455h17.6Zm17.309,0H94.238V34.455h14.942V53.04Zm18.936,0H111.694V34.455h16.569Zm17.753,0H130.483V34.455h15.534Zm2.367,0V34.455h12.723L165.4,53.04Z"/>
      </g>
    </g>
  </g>
</svg>
