<svg xmlns="http://www.w3.org/2000/svg" viewBox="0 0 495.743 131.104">
  <defs>
    <style>
      .cls-1 {
        fill: #fff;
      }

      .cls-2 {
        fill: #eda571;
      }

      .cls-3 {
        fill: #f7ef6f;
      }

      .cls-4 {
        fill: #763f98;
      }

      .cls-5 {
        fill: #75bee9;
      }
    </style>
  </defs>
  <g id="Logo_1" data-name="Logo 1" transform="translate(-202.47 -53.216)">
    <path id="Path_88" data-name="Path 88" class="cls-1" d="M6.4,1.4H18.784V23.642L40.527,1.4H56.693L31.735,26.355,58.867,55.107h-17.3L18.69,29.61V55.017H6.4Z" transform="translate(202.12 53.082)"/>
    <path id="Path_89" data-name="Path 89" class="cls-1" d="M65.9,1.4H82.727L106.55,38.652h.189V1.4h12.384V55.017h-16.26L78.379,16.861H78.19V55.017H65.9Z" transform="translate(198.868 53.082)"/>
    <path id="Path_90" data-name="Path 90" class="cls-1" d="M189.6,1.4h13.424L212,35.758h.189L223.916,1.4h11.439l11.628,35.262h.189L256.626,1.4H269.1L252.75,55.017H241.784L229.4,17.856h-.189L216.826,55.017H206.238Z" transform="translate(192.108 53.082)"/>
    <path id="Path_91" data-name="Path 91" class="cls-1" d="M320.981,32.142,299.9,1.4h15.409l11.911,20.072L339.794,1.4h14.653L333.366,32.142V55.017H320.981Z" transform="translate(186.081 53.082)"/>
    <path id="Path_92" data-name="Path 92" class="cls-1" d="M467.273,34.4a23.826,23.826,0,0,1-1.513,8.77,19.392,19.392,0,0,1-4.443,6.962,20.108,20.108,0,0,1-7.374,4.611,29.339,29.339,0,0,1-10.21,1.627,29.894,29.894,0,0,1-10.3-1.627,20.109,20.109,0,0,1-7.374-4.611,18.2,18.2,0,0,1-4.443-6.962A24.162,24.162,0,0,1,420.1,34.4V1.4h12.384V33.86a12.519,12.519,0,0,0,.851,4.611,10.974,10.974,0,0,0,2.363,3.707,12.381,12.381,0,0,0,3.592,2.441,12.646,12.646,0,0,0,4.538.9,10.973,10.973,0,0,0,4.538-.9,9.633,9.633,0,0,0,3.592-2.441,10.157,10.157,0,0,0,2.363-3.707,12.518,12.518,0,0,0,.851-4.611V1.4h12.1Z" transform="translate(179.512 53.082)"/>
    <path id="Path_93" data-name="Path 93" class="cls-1" d="M476.795,1.4h21.743a39.265,39.265,0,0,1,8.13.814,20.969,20.969,0,0,1,6.712,2.622,14.1,14.1,0,0,1,4.632,4.973,16.294,16.294,0,0,1,1.7,7.866,15.317,15.317,0,0,1-3.12,9.675,14.405,14.405,0,0,1-9.075,5.063l14.275,22.6H506.951L495.229,33.588h-6.145V55.017H476.7V1.4Zm12.29,22.242h7.279c1.134,0,2.269,0,3.5-.09a10.333,10.333,0,0,0,3.4-.723,5.386,5.386,0,0,0,2.458-1.808,5.2,5.2,0,0,0,.945-3.436,5.591,5.591,0,0,0-.851-3.255,6.138,6.138,0,0,0-2.174-1.9,10.4,10.4,0,0,0-3.12-.9,21.587,21.587,0,0,0-3.4-.271h-8.036V23.642Z" transform="translate(176.419 53.082)"/>
    <path id="Path_94" data-name="Path 94" class="cls-1" d="M0,83.9H14.086l13.9,35.172h.189L42.257,83.9H55.492L32.331,137.517H22.4Z" transform="translate(202.47 45.176)"/>
    <path id="Path_95" data-name="Path 95" class="cls-1" d="M135.676,94.388H119.7V83.9h44.337V94.388H148.061v43.219H135.676Z" transform="translate(195.928 45.176)"/>
    <path id="Path_96" data-name="Path 96" class="cls-1" d="M174,83.9h38.1V94.84H186.29v10.036h24.3v10.94h-24.3v10.94h27.132V137.7H174Z" transform="translate(192.961 45.176)"/>
    <path id="Path_97" data-name="Path 97" class="cls-1" d="M264.077,94.388H248.1V83.9h44.337V94.388H276.461v43.219H264.077Z" transform="translate(188.912 45.176)"/>
    <g id="Group_68" data-name="Group 68" transform="translate(485.981 128.081)">
      <g id="Group_67" data-name="Group 67">
        <path id="Path_98" data-name="Path 98" class="cls-2" d="M358.7,110.92c0,15.552-13.14,28.12-29.4,28.12s-29.4-12.568-29.4-28.12S313.04,82.8,329.3,82.8,358.7,95.458,358.7,110.92Z" transform="translate(-299.9 -82.8)"/>
      </g>
    </g>
    <g id="Group_70" data-name="Group 70" transform="translate(255.977 128.081)">
      <g id="Group_69" data-name="Group 69">
        <path id="Path_99" data-name="Path 99" class="cls-3" d="M115.4,110.92c0,15.552-13.14,28.12-29.4,28.12s-29.4-12.568-29.4-28.12S69.74,82.8,86,82.8,115.4,95.458,115.4,110.92Z" transform="translate(-56.6 -82.8)"/>
      </g>
    </g>
    <g id="Group_72" data-name="Group 72" transform="translate(323.947 53.216)">
      <g id="Group_71" data-name="Group 71">
        <path id="Path_100" data-name="Path 100" class="cls-4" d="M187.3,28.12c0,15.552-13.14,28.12-29.4,28.12s-29.4-12.568-29.4-28.12S141.64,0,157.9,0,187.3,12.568,187.3,28.12Z" transform="translate(-128.5)"/>
      </g>
    </g>
    <g id="Group_74" data-name="Group 74" transform="translate(535.328 53.216)">
      <g id="Group_73" data-name="Group 73">
        <path id="Path_101" data-name="Path 101" class="cls-5" d="M410.9,28.12c0,15.552-13.14,28.12-29.4,28.12s-29.4-12.568-29.4-28.12S365.24,0,381.5,0C397.666,0,410.9,12.568,410.9,28.12Z" transform="translate(-352.1)"/>
      </g>
    </g>
    <rect id="Rectangle_25" data-name="Rectangle 25" class="cls-1" width="9.737" height="9.313" transform="translate(475.677 173.47)"/>
    <rect id="Rectangle_26" data-name="Rectangle 26" class="cls-1" width="9.737" height="9.313" transform="translate(545.443 173.47)"/>
  </g>
</svg>
