<svg xmlns="http://www.w3.org/2000/svg" viewBox="0 0 149.438 37.172">
  <defs>
    <style>
      .cls-1 {
        fill: #646262;
      }
    </style>
  </defs>
  <g id="Group_372" data-name="Group 372" transform="translate(0 -0.006)">
    <path id="Path_168" data-name="Path 168" class="cls-1" d="M0,60.8V78.32H12.995v-4.4H6.142V60.8Z" transform="translate(0 -41.142)"/>
    <rect id="Rectangle_61" data-name="Rectangle 61" class="cls-1" width="6.142" height="17.488" transform="translate(18.813 19.658)"/>
    <g id="Group_371" data-name="Group 371" transform="translate(0.129 0.006)">
      <path id="Path_169" data-name="Path 169" class="cls-1" d="M106.642,75.637V70.756h2c2,0,2.974.905,2.974,2.36,0,1.713-1.067,2.554-3.136,2.554h-1.843Zm-6.109,2.683h11.637c3.232,0,5.4-2.133,5.4-4.978,0-2.263-1.2-3.717-3.782-4.655,1.81-.808,2.748-2,2.748-3.653,0-2.036-1.422-4.235-5.786-4.235H100.5V78.32Zm6.109-10.247v-4.59h1.778c2,0,2.78.937,2.78,2.3,0,1.261-.776,2.3-2.78,2.3Z" transform="translate(-68.143 -41.148)"/>
      <path id="Path_170" data-name="Path 170" class="cls-1" d="M180.709,68.367V63.712h1.81c1.939,0,3.006.776,3.006,2.3,0,1.552-1.164,2.36-3.136,2.36ZM174.6,78.388h6.142V71.082h1.681c1.681,0,2.651,1.713,3.911,4.719l1.1,2.586h6.045l-2.069-4.622c-.937-2.069-1.616-3.3-2.877-3.814a4.189,4.189,0,0,0,2.812-4.041c0-2.748-2.036-5.01-6.756-5.01H174.6Z" transform="translate(-118.29 -41.216)"/>
      <path id="Path_171" data-name="Path 171" class="cls-1" d="M254.669,72.375l2.683-6.918,2.683,6.918ZM246.2,78.388h6.077l1.164-2.845h7.887l1.164,2.845h6.077L260.585,60.9h-6.4Z" transform="translate(-166.745 -41.216)"/>
      <path id="Path_172" data-name="Path 172" class="cls-1" d="M340.142,68.367V63.712h1.81c1.939,0,3.006.776,3.006,2.3,0,1.552-1.164,2.36-3.135,2.36ZM334,78.388h6.142V71.082h1.681c1.681,0,2.651,1.713,3.911,4.719l1.1,2.586h6.045l-2.069-4.622c-.937-2.069-1.616-3.3-2.877-3.814a4.189,4.189,0,0,0,2.812-4.041c0-2.748-2.036-5.01-6.756-5.01H334Z" transform="translate(-226.164 -41.216)"/>
      <path id="Path_173" data-name="Path 173" class="cls-1" d="M406.788,70.53,400,60.8h7.305l3.362,5.818L413.9,60.8h6.012l-6.982,9.956V78.32h-6.142Z" transform="translate(-270.83 -41.148)"/>
      <path id="Path_174" data-name="Path 174" class="cls-1" d="M308.363,36.974V35.228h.55c.743,0,1,.291,1,.873,0,.55-.291.873-1,.873ZM306.1,40.465h2.263v-2.3h.937c2.036,0,2.683-1.131,2.683-2.133C311.983,35,311.3,34,309.429,34H306.1Z" transform="translate(-207.283 -23.012)"/>
      <path id="Path_175" data-name="Path 175" class="cls-1" d="M340.518,37.591c0,1.907-1.164,3.039-3.426,3.039-2.23,0-3.491-1.034-3.491-2.812V34.1h2.263v3.459c0,.905.485,1.358,1.2,1.358.679,0,1.2-.42,1.2-1.455V34.1h2.263Z" transform="translate(-225.893 -23.079)"/>
      <path id="Path_176" data-name="Path 176" class="cls-1" d="M368.8,39.5v-1.81h.743c.743,0,1.1.323,1.1.873,0,.646-.388.937-1.164.937H368.8Zm-2.263.97h4.3a1.819,1.819,0,0,0,1.972-1.843c0-.84-.42-1.358-1.39-1.713a1.42,1.42,0,0,0,1-1.358c0-.743-.517-1.552-2.133-1.552H366.5v6.465Zm2.263-3.75V35.034h.647c.743,0,1.034.356,1.034.84,0,.453-.291.84-1.034.84H368.8Z" transform="translate(-248.159 -23.012)"/>
      <path id="Path_177" data-name="Path 177" class="cls-1" d="M397.4,34.1h2.263v4.816h2.521v1.616H397.4Z" transform="translate(-269.07 -23.079)"/>
      <rect id="Rectangle_62" data-name="Rectangle 62" class="cls-1" width="2.263" height="6.465" transform="translate(136.411 11.021)"/>
      <path id="Path_178" data-name="Path 178" class="cls-1" d="M447.012,39.945a4.854,4.854,0,0,1-2.392.582,3.254,3.254,0,0,1-3.62-3.3c0-1.875,1.358-3.329,3.75-3.329a5.837,5.837,0,0,1,2.23.42V36.2a3.269,3.269,0,0,0-1.875-.582c-1.131,0-1.843.614-1.843,1.584s.711,1.584,1.843,1.584a3.516,3.516,0,0,0,1.907-.582Z" transform="translate(-298.577 -22.944)"/>
      <path id="Path_179" data-name="Path 179" class="cls-1" d="M253.2,9.016V7.4h6.271V9.016h-2v4.849H255.2V9.016Z" transform="translate(-171.483 -5.01)"/>
      <path id="Path_180" data-name="Path 180" class="cls-1" d="M283.963,10.5a1.27,1.27,0,1,1,2.521,0,1.27,1.27,0,1,1-2.521,0m-2.263,0a3.531,3.531,0,0,0,7.047,0,3.531,3.531,0,0,0-7.047,0" transform="translate(-190.77 -4.875)"/>
      <path id="Path_181" data-name="Path 181" class="cls-1" d="M317.063,10.248V8.534h.646c.711,0,1.1.291,1.1.84,0,.582-.42.873-1.164.873ZM314.8,13.933h2.263V11.25h.614c.614,0,.97.646,1.455,1.746l.42.97h2.23l-.776-1.713c-.356-.776-.582-1.2-1.067-1.422a1.549,1.549,0,0,0,1.034-1.487c0-1-.743-1.843-2.489-1.843H314.8Z" transform="translate(-213.171 -5.078)"/>
      <path id="Path_182" data-name="Path 182" class="cls-1" d="M347.463,10.5a1.27,1.27,0,1,1,2.521,0,1.254,1.254,0,0,1-1.261,1.422c-.808,0-1.261-.55-1.261-1.422m-2.263,0a3.531,3.531,0,0,0,7.047,0,3.531,3.531,0,0,0-7.047,0" transform="translate(-233.744 -4.875)"/>
      <path id="Path_183" data-name="Path 183" class="cls-1" d="M378.3,7.4h1.94l3.265,3.329L383.375,7.4h2.3v6.465h-1.939l-3.265-3.3.129,3.3h-2.3Z" transform="translate(-256.144 -5.01)"/>
      <path id="Path_184" data-name="Path 184" class="cls-1" d="M412,9.016V7.4h6.3V9.016h-2.036v4.849H414V9.016Z" transform="translate(-278.951 -5.01)"/>
      <path id="Path_185" data-name="Path 185" class="cls-1" d="M442.763,10.5a1.27,1.27,0,1,1,2.521,0,1.27,1.27,0,1,1-2.521,0m-2.263,0a3.531,3.531,0,0,0,7.047,0,3.531,3.531,0,0,0-7.047,0" transform="translate(-298.238 -4.875)"/>
      <path id="Path_186" data-name="Path 186" class="cls-1" d="M59.651,7.116C24.45-13.314.4,16.781.4,16.781l21.464.129C33.533,5.4,44.459,5.6,52.443,8.635c.646-.194,1.293-.356,1.972-.55a43.381,43.381,0,0,1,5.237-.97" transform="translate(-0.4 -0.006)"/>
      <path id="Path_187" data-name="Path 187" class="cls-1" d="M194.232,43.516h8.178c-1.939-1.746-3.847-3.362-5.721-4.816A19.6,19.6,0,0,0,191,40.478a30.961,30.961,0,0,1,3.232,3.039" transform="translate(-129.389 -26.192)"/>
      <path id="Path_188" data-name="Path 188" class="cls-1" d="M118.9,34.03s23.759-20.494,56.892.323h-6.368s-18.361-14.385-33.812-.226Z" transform="translate(-80.595 -16.932)"/>
    </g>
  </g>
</svg>
