<?xml version="1.0" encoding="UTF-8" standalone="no"?>
<svg xmlns:dc="http://purl.org/dc/elements/1.1/" xmlns:cc="http://creativecommons.org/ns#" xmlns:rdf="http://www.w3.org/1999/02/22-rdf-syntax-ns#" xmlns:svg="http://www.w3.org/2000/svg" xmlns="http://www.w3.org/2000/svg" viewBox="0 0 154.675 38.551113" height="38.551113" width="154.675" xml:space="preserve" version="1.1" id="svg8946"><metadata id="metadata8952"><rdf:RDF><cc:Work rdf:about=""><dc:format>image/svg+xml</dc:format><dc:type rdf:resource="http://purl.org/dc/dcmitype/StillImage"/><dc:title/></cc:Work></rdf:RDF></metadata><defs id="defs8950"><clipPath id="clipPath8960" clipPathUnits="userSpaceOnUse"><path id="path8962" d="M 0,0 576,0 576,756 0,756 0,0 Z"/></clipPath><clipPath id="clipPath8984" clipPathUnits="userSpaceOnUse"><path id="path8986" d="M 0,0 576,0 576,756 0,756 0,0 Z"/></clipPath><clipPath id="clipPath9004" clipPathUnits="userSpaceOnUse"><path id="path9006" d="M 0,0 576,0 576,756 0,756 0,0 Z"/></clipPath><clipPath id="clipPath9020" clipPathUnits="userSpaceOnUse"><path id="path9022" d="M 0,0 576,0 576,756 0,756 0,0 Z"/></clipPath><clipPath id="clipPath9046" clipPathUnits="userSpaceOnUse"><path id="path9048" d="M 0,0 576,0 576,756 0,756 0,0 Z"/></clipPath><clipPath id="clipPath9062" clipPathUnits="userSpaceOnUse"><path id="path9064" d="M 0,0 576,0 576,756 0,756 0,0 Z"/></clipPath><clipPath id="clipPath9090" clipPathUnits="userSpaceOnUse"><path id="path9092" d="M 0,0 576,0 576,756 0,756 0,0 Z"/></clipPath><clipPath id="clipPath9168" clipPathUnits="userSpaceOnUse"><path id="path9170" d="M 0,0 576,0 576,756 0,756 0,0 Z"/></clipPath></defs><g transform="matrix(1.25,0,0,-1.25,-278.28,70.233362)" id="g8954"><g style="fill:#28529a;fill-opacity:1" transform="translate(222.384,39.8676)" id="g8974"><path id="path8976" style="fill:#28529a;fill-opacity:1;fill-rule:nonzero;stroke:none" d="m 0,0 5.089,0 0,-10.88 5.706,0 0,-3.641 L 0,-14.521 0,0 Z"/></g><path id="path8978" style="fill:#28529a;fill-opacity:1;fill-rule:nonzero;stroke:none" d="m 237.991,39.868 5.089,0 0,-14.521 -5.089,0 0,14.521 z"/><g style="fill:#28529a;fill-opacity:1" id="g8980"><g style="fill:#28529a;fill-opacity:1" clip-path="url(#clipPath8984)" id="g8982"><g style="fill:#28529a;fill-opacity:1" transform="translate(254.449,27.5611)" id="g8988"><path id="path8990" style="fill:#28529a;fill-opacity:1;fill-rule:nonzero;stroke:none" d="m 0,0 0,4.067 1.661,0 c 1.66,0 2.47,-0.746 2.47,-1.96 C 4.131,0.682 3.236,0 1.533,0 L 0,0 Z m -5.088,-2.215 9.666,0 c 2.683,0 4.471,1.768 4.471,4.131 0,1.874 -0.98,3.088 -3.13,3.854 1.512,0.66 2.279,1.66 2.279,3.023 0,1.682 -1.172,3.514 -4.791,3.514 l -8.495,0 0,-14.522 z M 0,6.281 l 0,3.811 1.469,0 C 3.13,10.092 3.768,9.305 3.768,8.198 3.768,7.154 3.13,6.281 1.469,6.281 L 0,6.281 Z"/></g><g style="fill:#28529a;fill-opacity:1" transform="translate(274.2927,33.6507)" id="g8992"><path id="path8994" style="fill:#28529a;fill-opacity:1;fill-rule:nonzero;stroke:none" d="m 0,0 0,3.875 1.491,0 C 3.088,3.875 3.982,3.236 3.982,1.959 3.982,0.681 3.024,0 1.385,0 L 0,0 Z m -5.089,-8.304 5.089,0 0,6.068 1.385,0 c 1.383,0 2.192,-1.426 3.257,-3.918 l 0.915,-2.15 5.003,0 -1.724,3.832 c -0.788,1.726 -1.342,2.726 -2.384,3.173 1.553,0.681 2.342,1.831 2.342,3.364 0,2.279 -1.682,4.152 -5.6,4.152 l -8.283,0 0,-14.521 z"/></g></g></g><g style="fill:#28529a;fill-opacity:1" transform="translate(295.4568,30.3289)" id="g8996"><path id="path8998" style="fill:#28529a;fill-opacity:1;fill-rule:nonzero;stroke:none" d="M 0,0 2.235,5.748 4.449,0 0,0 Z m -7.049,-4.983 5.047,0 0.959,2.365 6.557,0 0.959,-2.365 5.045,0 -6.621,14.522 -5.323,0 -6.623,-14.522 z"/></g><g style="fill:#28529a;fill-opacity:1" id="g9000"><g style="fill:#28529a;fill-opacity:1" clip-path="url(#clipPath9004)" id="g9002"><g style="fill:#28529a;fill-opacity:1" transform="translate(317.0673,33.6507)" id="g9008"><path id="path9010" style="fill:#28529a;fill-opacity:1;fill-rule:nonzero;stroke:none" d="m 0,0 0,3.875 1.491,0 c 1.597,0 2.49,-0.639 2.49,-1.916 C 3.981,0.681 3.024,0 1.385,0 L 0,0 Z m -5.088,-8.304 5.088,0 0,6.068 1.385,0 c 1.383,0 2.193,-1.426 3.257,-3.918 l 0.915,-2.15 5.004,0 -1.724,3.832 c -0.789,1.726 -1.342,2.726 -2.386,3.173 1.555,0.681 2.342,1.831 2.342,3.364 0,2.279 -1.682,4.152 -5.599,4.152 l -8.282,0 0,-14.521 z"/></g></g></g><g style="fill:#28529a;fill-opacity:1" transform="translate(335.3157,31.8188)" id="g9012"><path id="path9014" style="fill:#28529a;fill-opacity:1;fill-rule:nonzero;stroke:none" d="m 0,0 -5.643,8.049 6.068,0 2.769,-4.812 2.704,4.812 4.982,0 -5.792,-8.24 0,-6.282 L 0,-6.473 0,0 Z"/></g><g style="fill:#28529a;fill-opacity:1" id="g9016"><g style="fill:#28529a;fill-opacity:1" clip-path="url(#clipPath9020)" id="g9018"><g style="fill:#28529a;fill-opacity:1" transform="translate(306.3574,44.5954)" id="g9024"><path id="path9026" style="fill:#28529a;fill-opacity:1;fill-rule:nonzero;stroke:none" d="m 0,0 0,1.453 0.456,0 C 1.061,1.453 1.288,1.201 1.288,0.738 1.288,0.282 1.054,0 0.465,0 L 0,0 Z m -1.876,-2.906 1.876,0 0,1.908 0.786,0 c 1.696,0 2.229,0.927 2.229,1.76 0,0.863 -0.573,1.687 -2.127,1.687 l -2.764,0 0,-5.355 z"/></g><g style="fill:#28529a;fill-opacity:1" transform="translate(317.6097,44.1473)" id="g9028"><path id="path9030" style="fill:#28529a;fill-opacity:1;fill-rule:nonzero;stroke:none" d="m 0,0 c 0,-1.571 -0.973,-2.528 -2.834,-2.528 -1.861,0 -2.905,0.871 -2.905,2.332 l 0,3.093 1.877,0 0,-2.858 c 0,-0.753 0.399,-1.114 0.981,-1.114 0.574,0 1.005,0.361 1.005,1.209 l 0,2.763 L 0,2.897 0,0 Z"/></g><g style="fill:#28529a;fill-opacity:1" transform="translate(322.5801,42.5058)" id="g9032"><path id="path9034" style="fill:#28529a;fill-opacity:1;fill-rule:nonzero;stroke:none" d="m 0,0 0,1.501 0.613,0 c 0.612,0 0.91,-0.276 0.91,-0.723 C 1.523,0.252 1.194,0 0.566,0 L 0,0 Z m -1.876,-0.816 3.565,0 c 0.989,0 1.648,0.652 1.648,1.523 0,0.691 -0.361,1.139 -1.154,1.422 0.558,0.242 0.841,0.612 0.841,1.114 0,0.62 -0.432,1.296 -1.767,1.296 l -3.133,0 0,-5.355 z M 0,2.317 l 0,1.405 0.542,0 C 1.155,3.722 1.39,3.432 1.39,3.024 1.39,2.639 1.155,2.317 0.542,2.317 L 0,2.317 Z"/></g></g></g><g style="fill:#28529a;fill-opacity:1" transform="translate(328.972,47.0446)" id="g9036"><path id="path9038" style="fill:#28529a;fill-opacity:1;fill-rule:nonzero;stroke:none" d="m 0,0 1.876,0 0,-4.012 2.105,0 0,-1.343 L 0,-5.355 0,0 Z"/></g><path id="path9040" style="fill:#28529a;fill-opacity:1;fill-rule:nonzero;stroke:none" d="m 335.677,47.045 1.877,0 0,-5.355 -1.877,0 0,5.355 z"/><g style="fill:#28529a;fill-opacity:1" id="g9042"><g style="fill:#28529a;fill-opacity:1" clip-path="url(#clipPath9046)" id="g9044"><g style="fill:#28529a;fill-opacity:1" transform="translate(345.6488,42.0897)" id="g9050"><path id="path9052" style="fill:#28529a;fill-opacity:1;fill-rule:nonzero;stroke:none" d="m 0,0 c -0.556,-0.314 -1.255,-0.471 -1.993,-0.471 -2.238,0 -3.009,1.5 -3.009,2.725 0,1.563 1.14,2.772 3.102,2.772 0.707,0 1.335,-0.126 1.854,-0.361 l 0,-1.563 c -0.543,0.345 -1.013,0.494 -1.555,0.494 -0.943,0 -1.523,-0.501 -1.523,-1.318 0,-0.801 0.596,-1.32 1.539,-1.32 0.542,0 0.981,0.133 1.585,0.472 L 0,0 Z"/></g></g></g><g style="fill:#28529a;fill-opacity:1" transform="translate(290.2896,52.8499)" id="g9054"><path id="path9056" style="fill:#28529a;fill-opacity:1;fill-rule:nonzero;stroke:none" d="m 0,0 0,1.343 5.222,0 0,-1.343 -1.673,0 0,-4.012 -1.876,0 L 1.673,0 0,0 Z"/></g><g style="fill:#28529a;fill-opacity:1" id="g9058"><g style="fill:#28529a;fill-opacity:1" clip-path="url(#clipPath9062)" id="g9060"><g style="fill:#28529a;fill-opacity:1" transform="translate(299.8157,51.5155)" id="g9066"><path id="path9068" style="fill:#28529a;fill-opacity:1;fill-rule:nonzero;stroke:none" d="M 0,0 C 0,0.722 0.392,1.177 1.036,1.177 1.672,1.177 2.073,0.722 2.073,0 2.073,-0.723 1.672,-1.178 1.036,-1.178 0.392,-1.178 0,-0.723 0,0 m -1.877,0 c 0,-1.484 0.981,-2.749 2.913,-2.749 2.042,0 2.912,1.383 2.912,2.749 0,1.382 -0.894,2.748 -2.912,2.748 -1.994,0 -2.913,-1.327 -2.913,-2.748"/></g><g style="fill:#28529a;fill-opacity:1" transform="translate(308.6965,51.8998)" id="g9070"><path id="path9072" style="fill:#28529a;fill-opacity:1;fill-rule:nonzero;stroke:none" d="m 0,0 0,1.429 0.549,0 C 1.138,1.429 1.468,1.194 1.468,0.722 1.468,0.251 1.114,0 0.51,0 L 0,0 Z m -1.877,-3.062 1.877,0 0,2.237 0.51,0 c 0.511,0 0.808,-0.526 1.201,-1.444 l 0.337,-0.793 1.847,0 -0.638,1.413 c -0.29,0.636 -0.494,1.005 -0.879,1.17 0.573,0.252 0.864,0.675 0.864,1.241 0,0.84 -0.62,1.531 -2.065,1.531 l -3.054,0 0,-5.355 z"/></g><g style="fill:#28529a;fill-opacity:1" transform="translate(316.8394,51.5155)" id="g9074"><path id="path9076" style="fill:#28529a;fill-opacity:1;fill-rule:nonzero;stroke:none" d="M 0,0 C 0,0.722 0.393,1.177 1.036,1.177 1.673,1.177 2.074,0.722 2.074,0 2.074,-0.723 1.673,-1.178 1.036,-1.178 0.393,-1.178 0,-0.723 0,0 m -1.876,0 c 0,-1.484 0.982,-2.749 2.912,-2.749 2.042,0 2.914,1.383 2.914,2.749 0,1.382 -0.895,2.748 -2.914,2.748 -1.993,0 -2.912,-1.327 -2.912,-2.748"/></g></g></g><g style="fill:#28529a;fill-opacity:1" transform="translate(323.8599,54.1927)" id="g9078"><path id="path9080" style="fill:#28529a;fill-opacity:1;fill-rule:nonzero;stroke:none" d="M 0,0 1.601,0 4.311,-2.748 4.209,0 l 1.9,0 0,-5.355 -1.603,0 L 1.798,-2.607 1.9,-5.355 0,-5.355 0,0 Z"/></g><g style="fill:#28529a;fill-opacity:1" transform="translate(332.8892,52.8499)" id="g9082"><path id="path9084" style="fill:#28529a;fill-opacity:1;fill-rule:nonzero;stroke:none" d="m 0,0 0,1.343 5.221,0 0,-1.343 -1.672,0 0,-4.012 -1.877,0 L 1.672,0 0,0 Z"/></g><path d="m 342.414,51.5155 c 0,0.722 0.392,1.177 1.036,1.177 0.637,0 1.037,-0.455 1.037,-1.177 0,-0.723 -0.4,-1.178 -1.037,-1.178 -0.644,0 -1.036,0.455 -1.036,1.178 m -1.876,0 c 0,-1.484 0.981,-2.749 2.912,-2.749 2.042,0 2.914,1.383 2.914,2.749 0,1.382 -0.895,2.748 -2.914,2.748 -1.993,0 -2.912,-1.327 -2.912,-2.748" style="fill:#28529a;fill-opacity:1;fill-rule:nonzero;stroke:none" id="path9096"/><g style="fill:#28529a;fill-opacity:1" transform="translate(271.6675,50.295)" id="g9098"><path id="path9100" style="fill:#28529a;fill-opacity:1;fill-rule:nonzero;stroke:none" d="m 0,0 c -29.209,16.935 -49.189,-8.023 -49.189,-8.023 l 17.803,-0.117 c 9.677,9.552 18.748,9.382 25.367,6.866 0.531,0.157 1.075,0.307 1.636,0.448 C -3.051,-0.493 -1.584,-0.206 0,0"/></g><g style="fill:#28529a;fill-opacity:1" transform="translate(276.2989,41.7996)" id="g9102"><path id="path9104" style="fill:#28529a;fill-opacity:1;fill-rule:nonzero;stroke:none" d="M 0,0 6.793,0 C 5.19,1.457 3.609,2.78 2.049,3.984 0.494,3.743 -1.094,3.278 -2.68,2.517 -0.96,1.101 0,0 0,0"/></g><g style="fill:#28529a;fill-opacity:1" transform="translate(254.2676,42.0061)" id="g9106"><path id="path9108" style="fill:#28529a;fill-opacity:1;fill-rule:nonzero;stroke:none" d="m 0,0 c 0,0 19.719,17.009 47.21,-0.255 l -5.29,0 c 0,0 -15.238,11.927 -28.052,0.193 L 0,0 Z"/></g></g></svg>